<svg viewBox="0 0 565 368" xmlns="http://www.w3.org/2000/svg">
  <rect x="0" y="0" width="565" height="368" fill="#ffffff" />
  <path
    d="
      M 14 22
      L 94 0
      L 168 58
      L 167 64
      L 198 98
      L 235 91
      L 276 96
      L 291 87
      L 303 100
      L 308 102
      L 320 123
      L 326 120
      L 327 158
      L 330 161
      L 343 162
      L 353 194
      L 389 194
      L 392 198
      L 393 202
      L 395 209
      L 404 216
      L 414 217
      L 419 216
      L 416 204
      L 422 194
      L 430 190
      L 433 180
      L 441 172
      L 457 165
      L 462 162
      L 469 150
      L 478 149
      L 480 146
      L 481 143
      L 485 144
      L 490 137
      L 495 140
      L 483 152
      L 475 159
      L 466 168
      L 467 172
      L 473 175
      L 476 176
      L 485 176
      L 485 177
      L 487 185
      L 505 187
      L 506 185
      L 507 179
      L 509 178
      L 511 178
      L 513 176
      L 515 173
      L 517 173
      L 520 174
      L 520 175
      L 521 180
      L 523 182
      L 529 183
      L 532 188
      L 539 188
      L 547 192
      L 565 194
      L 554 200
      L 554 203
      L 551 206
      L 542 207
      L 543 210
      L 543 214
      L 537 214
      L 530 219
      L 525 224
      L 521 226
      L 513 226
      L 511 225
      L 505 223
      L 491 227
      L 483 229
      L 483 224
      L 479 220
      L 481 215
      L 486 209
      L 489 206
      L 488 202
      L 484 197
      L 479 192
      L 476 191
      L 470 202
      L 465 204
      L 459 206
      L 455 206
      L 450 211
      L 442 207
      L 438 214
      L 440 222
      L 441 229
      L 438 233
      L 435 235
      L 429 233
      L 427 241
      L 427 247
      L 421 247
      L 420 250
      L 419 262
      L 409 264
      L 402 263
      L 397 264
      L 391 261
      L 385 263
      L 381 267
      L 378 273
      L 378 277
      L 378 279
      L 387 281
      L 390 288
      L 392 290
      L 403 291
      L 405 293
      L 405 299
      L 403 306
      L 404 312
      L 406 315
      L 410 318
      L 415 324
      L 415 328
      L 414 332
      L 410 336
      L 408 336
      L 406 340
      L 403 345
      L 402 347
      L 400 348
      L 398 348
      L 400 352
      L 400 355
      L 399 360
      L 398 364
      L 396 367
      L 392 366
      L 388 365
      L 385 365
      L 382 367
      L 378 368
      L 375 367
      L 366 361
      L 362 361
      L 358 361
      L 351 359
      L 351 344
      L 353 337
      L 354 332
      L 350 330
      L 344 330
      L 326 323
      L 322 325
      L 311 321
      L 304 316
      L 299 308
      L 296 306
      L 291 304
      L 285 303
      L 274 292
      L 268 291
      L 263 289
      L 257 284
      L 254 282
      L 252 278
      L 248 274
      L 243 269
      L 237 264
      L 224 258
      L 217 254
      L 215 250
      L 210 239
      L 204 226
      L 198 217
      L 195 213
      L 194 208
      L 193 199
      L 192 196
      L 186 191
      L 179 189
      L 176 183
      L 173 186
      L 169 186
      L 162 186
      L 158 185
      L 154 184
      L 149 184
      L 147 182
      L 143 180
      L 140 178
      L 140 175
      L 140 171
      L 139 166
      L 138 164
      L 140 161
      L 142 160
      L 142 160
      L 142 160
      L 130 156
      L 130 155
      L 131 151
      L 131 147
      L 128 143
      L 121 142
      L 115 142
      L 108 141
      L 107 137
      L 105 134
      L 87 121
      L 86 124
      L 81 123
      L 72 125
      L 77 129
      L 77 132
      L 69 129
      L 66 134
      L 66 138
      L 54 143
      L 52 141
      L 50 139
      L 47 137
      L 41 139
      L 39 142
      L 39 146
      L 35 149
      L 36 153
      L 32 159
      L 32 163
      L 29 164
      L 29 170
      L 30 177
      L 31 182
      L 0 175
      Z
    "
    fill="#2e86de"
    stroke="#1b4f72"
    stroke-width="1"
  />
</svg>
